<?xml version="1.0" encoding="UTF-8" standalone="no"?>
<!-- Created with Inkscape (http://www.inkscape.org/) -->
<svg
   xmlns:dc="http://purl.org/dc/elements/1.1/"
   xmlns:cc="http://creativecommons.org/ns#"
   xmlns:rdf="http://www.w3.org/1999/02/22-rdf-syntax-ns#"
   xmlns:svg="http://www.w3.org/2000/svg"
   xmlns="http://www.w3.org/2000/svg"
   xmlns:sodipodi="http://sodipodi.sourceforge.net/DTD/sodipodi-0.dtd"
   xmlns:inkscape="http://www.inkscape.org/namespaces/inkscape"
   width="177.16534"
   height="177.16534"
   id="svg2"
   sodipodi:version="0.32"
   inkscape:version="0.46"
   version="1.0"
   sodipodi:docname="Фазовый портрет.svg"
   inkscape:output_extension="org.inkscape.output.svg.inkscape">
  <sodipodi:namedview
     id="base"
     pagecolor="#ffffff"
     bordercolor="#666666"
     borderopacity="1.0"
     gridtolerance="10000"
     guidetolerance="10"
     objecttolerance="10"
     inkscape:pageopacity="0.0"
     inkscape:pageshadow="2"
     inkscape:zoom="5.12"
     inkscape:cx="78.762059"
     inkscape:cy="108.3101"
     inkscape:document-units="mm"
     inkscape:current-layer="layer1"
     showgrid="true"
     borderlayer="false"
     inkscape:snap-guide="true"
     units="cm"
     inkscape:snap-bbox="true"
     inkscape:object-paths="true"
     inkscape:object-nodes="true"
     inkscape:bbox-paths="false"
     inkscape:bbox-nodes="true"
     inkscape:snap-intersection-line-segments="true"
     inkscape:snap-center="true"
     inkscape:window-width="1280"
     inkscape:window-height="931"
     inkscape:window-x="0"
     inkscape:window-y="36">
    <inkscape:grid
       dotted="false"
       empspacing="10"
       spacingy="0.5mm"
       spacingx="0.5mm"
       units="mm"
       enabled="true"
       visible="true"
       id="grid2385"
       type="xygrid" />
  </sodipodi:namedview>
  <defs
     id="defs4">
    <marker
       style="overflow:visible;"
       id="Arrow1Lend"
       refX="0.0"
       refY="0.0"
       orient="auto"
       inkscape:stockid="Arrow1Lend">
      <path
         transform="scale(0.8) rotate(180) translate(12.5,0)"
         style="fill-rule:evenodd;stroke:#000000;stroke-width:1.0pt;marker-start:none;"
         d="M 0.0,0.0 L 5.0,-5.0 L -12.5,0.0 L 5.0,5.0 L 0.0,0.0 z "
         id="path3214" />
    </marker>
    <marker
       style="overflow:visible"
       id="DotM"
       refX="0.0"
       refY="0.0"
       orient="auto"
       inkscape:stockid="DotM">
      <path
         transform="scale(0.4) translate(7.4, 1)"
         style="fill-rule:evenodd;stroke:#000000;stroke-width:1.0pt;marker-start:none;marker-end:none"
         d="M -2.5,-1.0 C -2.5,1.7600000 -4.7400000,4.0 -7.5,4.0 C -10.260000,4.0 -12.5,1.7600000 -12.5,-1.0 C -12.5,-3.7600000 -10.260000,-6.0 -7.5,-6.0 C -4.7400000,-6.0 -2.5,-3.7600000 -2.5,-1.0 z "
         id="path3276" />
    </marker>
    <inkscape:perspective
       id="perspective10"
       inkscape:persp3d-origin="372.04724 : 350.78739 : 1"
       inkscape:vp_z="744.09448 : 526.18109 : 1"
       inkscape:vp_y="0 : 1000 : 0"
       inkscape:vp_x="0 : 526.18109 : 1"
       sodipodi:type="inkscape:persp3d" />
  </defs>
  <metadata
     id="metadata7">
    <rdf:RDF>
      <cc:Work
         rdf:about="">
        <dc:format>image/svg+xml</dc:format>
        <dc:type
           rdf:resource="http://purl.org/dc/dcmitype/StillImage" />
      </cc:Work>
    </rdf:RDF>
  </metadata>
  <g
     id="layer1"
     inkscape:groupmode="layer"
     inkscape:label="Layer 1">
    <path
       id="path2380"
       d="M 0,17.716525 L 177.16535,17.716525"
       style="fill:none;fill-rule:evenodd;stroke:#999999;stroke-width:0.99921262;stroke-linecap:butt;stroke-linejoin:miter;stroke-opacity:1;stroke-miterlimit:4;stroke-dasharray:3.99685049,3.99685049;stroke-dashoffset:8.9929136" />
    <path
       id="path2382"
       d="M 0,35.433061 L 177.16535,35.433061"
       style="fill:none;fill-rule:evenodd;stroke:#999999;stroke-width:0.99921262;stroke-linecap:butt;stroke-linejoin:miter;stroke-opacity:1;stroke-miterlimit:4;stroke-dasharray:3.99685049,3.99685049;stroke-dashoffset:8.9929136" />
    <path
       id="path2384"
       d="M 0,53.149596 L 177.16535,53.149596"
       style="fill:none;fill-rule:evenodd;stroke:#999999;stroke-width:0.99921262;stroke-linecap:butt;stroke-linejoin:miter;stroke-opacity:1;stroke-miterlimit:4;stroke-dasharray:3.99685049,3.99685049;stroke-dashoffset:8.9929136" />
    <path
       id="path2386"
       d="M 0,70.866132 L 177.16535,70.866132"
       style="fill:none;fill-rule:evenodd;stroke:#999999;stroke-width:0.99921262;stroke-linecap:butt;stroke-linejoin:miter;stroke-opacity:1;stroke-miterlimit:4;stroke-dasharray:3.99685049,3.99685049;stroke-dashoffset:8.9929136" />
    <path
       id="path2388"
       d="M 0,88.582667 L 177.16535,88.582667"
       style="fill:none;fill-rule:evenodd;stroke:#999999;stroke-width:0.99921262;stroke-linecap:butt;stroke-linejoin:miter;stroke-opacity:1;stroke-miterlimit:4;stroke-dasharray:3.99685049,3.99685049;stroke-dashoffset:8.9929136" />
    <path
       id="path2390"
       d="M 0,106.2992 L 177.16535,106.2992"
       style="fill:none;fill-rule:evenodd;stroke:#999999;stroke-width:0.99921262;stroke-linecap:butt;stroke-linejoin:miter;stroke-opacity:1;stroke-miterlimit:4;stroke-dasharray:3.99685049,3.99685049;stroke-dashoffset:8.9929136" />
    <path
       id="path2392"
       d="M 0,124.01574 L 177.16535,124.01574"
       style="fill:none;fill-rule:evenodd;stroke:#999999;stroke-width:0.99921262;stroke-linecap:butt;stroke-linejoin:miter;stroke-opacity:1;stroke-miterlimit:4;stroke-dasharray:3.99685049,3.99685049;stroke-dashoffset:8.9929136" />
    <path
       id="path2394"
       d="M 0,141.73227 L 177.16535,141.73227"
       style="fill:none;fill-rule:evenodd;stroke:#999999;stroke-width:0.99921262;stroke-linecap:butt;stroke-linejoin:miter;stroke-opacity:1;stroke-miterlimit:4;stroke-dasharray:3.99685049,3.99685049;stroke-dashoffset:8.9929136" />
    <path
       id="path2396"
       d="M 0,159.44881 L 177.16535,159.44881"
       style="fill:none;fill-rule:evenodd;stroke:#999999;stroke-width:0.99921262;stroke-linecap:butt;stroke-linejoin:miter;stroke-opacity:1;stroke-miterlimit:4;stroke-dasharray:3.99685049,3.99685049;stroke-dashoffset:8.9929136" />
    <path
       id="path2398"
       d="M 17.716535,177.16534 L 17.716535,-1.0092427e-05"
       style="fill:none;fill-rule:evenodd;stroke:#999999;stroke-width:0.99921262;stroke-linecap:butt;stroke-linejoin:miter;stroke-opacity:1;stroke-miterlimit:4;stroke-dasharray:3.99685049,3.99685049;stroke-dashoffset:8.9929136" />
    <path
       id="path2400"
       d="M 35.433071,177.16534 L 35.433071,-1.0092427e-05"
       style="fill:none;fill-rule:evenodd;stroke:#999999;stroke-width:0.99921262;stroke-linecap:butt;stroke-linejoin:miter;stroke-opacity:1;stroke-miterlimit:4;stroke-dasharray:3.99685049,3.99685049;stroke-dashoffset:8.9929136" />
    <path
       id="path2402"
       d="M 53.149606,177.16534 L 53.149606,-1.0092427e-05"
       style="fill:none;fill-rule:evenodd;stroke:#999999;stroke-width:0.99921262;stroke-linecap:butt;stroke-linejoin:miter;stroke-opacity:1;stroke-miterlimit:4;stroke-dasharray:3.99685049,3.99685049;stroke-dashoffset:8.9929136" />
    <path
       id="path2404"
       d="M 70.866142,177.16534 L 70.866142,-1.0092427e-05"
       style="fill:none;fill-rule:evenodd;stroke:#999999;stroke-width:0.99921262;stroke-linecap:butt;stroke-linejoin:miter;stroke-opacity:1;stroke-miterlimit:4;stroke-dasharray:3.99685049,3.99685049;stroke-dashoffset:8.9929136" />
    <path
       id="path2406"
       d="M 88.582677,177.16534 L 88.582677,-1.0092427e-05"
       style="fill:none;fill-rule:evenodd;stroke:#999999;stroke-width:0.99921262;stroke-linecap:butt;stroke-linejoin:miter;stroke-opacity:1;stroke-miterlimit:4;stroke-dasharray:3.99685049,3.99685049;stroke-dashoffset:8.9929136" />
    <path
       id="path2408"
       d="M 106.29921,177.16534 L 106.29921,-1.0092427e-05"
       style="fill:none;fill-rule:evenodd;stroke:#999999;stroke-width:0.99921262;stroke-linecap:butt;stroke-linejoin:miter;stroke-opacity:1;stroke-miterlimit:4;stroke-dasharray:3.99685049,3.99685049;stroke-dashoffset:8.9929136" />
    <path
       id="path2410"
       d="M 124.01575,177.16534 L 124.01575,-1.0092427e-05"
       style="fill:none;fill-rule:evenodd;stroke:#999999;stroke-width:0.99921262;stroke-linecap:butt;stroke-linejoin:miter;stroke-opacity:1;stroke-miterlimit:4;stroke-dasharray:3.99685049,3.99685049;stroke-dashoffset:8.9929136" />
    <path
       id="path2412"
       d="M 141.73228,177.16534 L 141.73228,-1.0092427e-05"
       style="fill:none;fill-rule:evenodd;stroke:#999999;stroke-width:0.99921262;stroke-linecap:butt;stroke-linejoin:miter;stroke-opacity:1;stroke-miterlimit:4;stroke-dasharray:3.99685049,3.99685049;stroke-dashoffset:8.9929136" />
    <path
       id="path2414"
       d="M 159.44882,177.16534 L 159.44882,-1.0092427e-05"
       style="fill:none;fill-rule:evenodd;stroke:#999999;stroke-width:0.99921262;stroke-linecap:butt;stroke-linejoin:miter;stroke-opacity:1;stroke-miterlimit:4;stroke-dasharray:3.99685049,3.99685049;stroke-dashoffset:8.9929136" />
    <path
       id="path3206"
       d="M 0,88.582667 L 177.16535,88.582667"
       style="fill:none;fill-rule:evenodd;stroke:#000000;stroke-width:1px;stroke-linecap:butt;stroke-linejoin:miter;stroke-opacity:1;marker-mid:url(#DotM);marker-end:url(#Arrow1Lend)" />
    <path
       id="path4509"
       d="M 88.582677,177.16534 L 88.582677,-1.0092427e-05"
       style="fill:none;fill-rule:evenodd;stroke:#000000;stroke-width:1px;stroke-linecap:butt;stroke-linejoin:miter;stroke-opacity:1;marker-mid:url(#DotM);marker-end:url(#Arrow1Lend)" />
    <g
       id="g5581">
      <text
         xml:space="preserve"
         style="font-size:14px;font-style:normal;font-weight:normal;fill:#000000;fill-opacity:1;stroke:none;stroke-width:1px;stroke-linecap:butt;stroke-linejoin:miter;stroke-opacity:1;font-family:Bitstream Vera Sans;-inkscape-font-specification:Bitstream Vera Sans"
         x="159.0455"
         y="106.2992"
         id="text5573"><tspan
           sodipodi:role="line"
           id="tspan5575"
           x="159.0455"
           y="106.2992">x</tspan></text>
      <text
         xml:space="preserve"
         style="font-size:8px;font-style:normal;font-weight:normal;fill:#000000;fill-opacity:1;stroke:none;stroke-width:1px;stroke-linecap:butt;stroke-linejoin:miter;stroke-opacity:1;font-family:Bitstream Vera Sans"
         x="166.53543"
         y="108.07085"
         id="text5577"><tspan
           sodipodi:role="line"
           id="tspan5579"
           x="166.53543"
           y="108.07085">1</tspan></text>
    </g>
    <g
       transform="translate(-88.58268,-88.582668)"
       id="g5587">
      <g
         id="g5597">
        <text
           id="text5589"
           y="106.2992"
           x="159.0455"
           style="font-size:14px;font-style:normal;font-weight:normal;fill:#000000;fill-opacity:1;stroke:none;stroke-width:1px;stroke-linecap:butt;stroke-linejoin:miter;stroke-opacity:1;font-family:Bitstream Vera Sans;-inkscape-font-specification:Bitstream Vera Sans"
           xml:space="preserve"><tspan
             y="106.2992"
             x="159.0455"
             id="tspan5591"
             sodipodi:role="line">x</tspan></text>
        <text
           id="text5593"
           y="108.07085"
           x="166.53543"
           style="font-size:8px;font-style:normal;font-weight:normal;fill:#000000;fill-opacity:1;stroke:none;stroke-width:1px;stroke-linecap:butt;stroke-linejoin:miter;stroke-opacity:1;font-family:Bitstream Vera Sans"
           xml:space="preserve"><tspan
             y="108.07085"
             x="166.53543"
             id="tspan5595"
             sodipodi:role="line">2</tspan></text>
      </g>
      <path
         transform="translate(88.58268,88.582668)"
         d="M 90.354333,88.582664 A 1.7716535,1.7716535 0 1 1 86.811026,88.582664 A 1.7716535,1.7716535 0 1 1 90.354333,88.582664 z"
         sodipodi:ry="1.7716535"
         sodipodi:rx="1.7716535"
         sodipodi:cy="88.582664"
         sodipodi:cx="88.58268"
         id="path5603"
         style="fill:#000000;fill-opacity:1;stroke:none;stroke-width:0.99921260000000001;stroke-miterlimit:4;stroke-dasharray:3.99685039000000009, 3.99685039000000009;stroke-dashoffset:8.99291316000000052;stroke-opacity:1"
         sodipodi:type="arc" />
    </g>
    <path
       style="fill:#008000;fill-rule:evenodd;stroke:#008000;stroke-width:0.66259986px;stroke-linecap:butt;stroke-linejoin:miter;stroke-opacity:1"
       d="M 106.36814,33.727574 L 114.66406,43.897723 L 101.92523,40.739161"
       id="path8356"
       sodipodi:nodetypes="ccc"
       inkscape:transform-center-x="6.7651851"
       inkscape:transform-center-y="-5.3358606" />
  </g>
  <path
     id="path5303"
     title="0.180*exp(0.1*x)"
     d=" M 88.8241170604 87.8396060717 C 88.7168798362 87.7925370352 88.5965038082 87.7687716918 88.4741060604 87.7728595981 C 88.3517083126 87.7769475044 88.2274597603 87.8090610827 88.1139111218 87.8682948682 C 88.0003624833 87.9275286536 87.8977492781 88.014022827 87.8174948081 88.1212450502 C 87.7372403382 88.2284672734 87.6796300802 88.3564431484 87.6524784779 88.4938453523 C 87.6253268756 88.6312475563 87.6289146641 88.7779710614 87.6654842851 88.9198006202 C 87.7020539062 89.0616301789 87.77182252 89.1983397492 87.8704725503 89.3155123978 C 87.9691225805 89.4326850463 88.0967564946 89.5300094021 88.2427805888 89.5958465025 C 88.388804683 89.6616836028 88.5531746832 89.6956935209 88.7206365794 89.6916960763 C 88.8880984757 89.6876986317 89.0584567236 89.6453933689 89.2145333757 89.5658553065 C 89.3706100277 89.4863172442 89.5120847789 89.369351584 89.623248429 89.2237441415 C 89.734412079 89.078136699 89.8148745025 88.9038487398 89.8538000536 88.7162713778 C 89.8927256047 88.5286940157 89.8897289423 88.3279672465 89.8415578833 88.1335046766 C 89.7933868244 87.9390421066 89.699741406 87.7511500758 89.5663392382 87.589603464 C 89.4329370704 87.4280568522 89.2596339495 87.2932802008 89.0607677873 87.2013305621 C 88.8619016251 87.1093809235 88.6375285509 87.0607238069 88.4084316574 87.0640107356 C 88.1793347639 87.0672976643 87.9457775933 87.1229421307 87.7312691617 87.2296974623 C 87.5167607302 87.3364527939 87.321736596 87.4945895953 87.1677973101 87.6922956808 C 87.0138580241 87.8900017664 86.9015366734 88.1273351944 86.8458540471 88.3833859688 C 86.7901714207 88.6394367433 86.7916563893 88.9140184037 86.8550098913 89.1806204723 C 86.9183633932 89.4472225409 87.0439996896 89.7054299293 87.224356051 89.9281212334 C 87.4047124124 90.1508125376 87.6399916003 90.3374089715 87.9107921175 90.4657619175 C 88.1815926347 90.5941148635 88.4878437718 90.6635868937 88.8012322517 90.6620743273 C 89.1146207316 90.6605617609 89.4347914804 90.5874956151 89.7295739718 90.4442749027 C 90.0243564632 90.3010541903 90.2931584889 90.0873031222 90.5062822377 89.8188964691 C 90.7194059865 89.5504898159 90.8761230882 89.2273412273 90.9556166908 88.8778546165 C 91.0351102934 88.5283680057 91.0366546099 88.1527915162 90.9534747673 87.7873234578 C 90.8702949247 87.4218553994 90.7018189154 87.0670581121 90.4580374576 86.7601251829 C 90.2142559998 86.4531922537 89.8948842316 86.1949126729 89.5261700149 86.015832688 C 89.1574557981 85.8367527031 88.739487545 85.7377450724 88.3108329392 85.7357331928 C 87.8821783334 85.7337213132 87.4433156159 85.8294880304 87.0382640167 86.021538752 C 86.6332124175 86.2135894736 86.2627770322 86.5024458937 85.9677835432 86.8667821053 C 85.6727900541 87.2311183169 85.4542335602 87.6710619095 85.3409560176 88.1480346881 C 85.227678475 88.6250074666 85.2206758051 89.1386794852 85.3296856371 89.6396289745 C 85.4386954691 90.1405784637 85.6645074848 90.6280437352 85.9939412526 91.0510234287 C 86.3233750204 91.4740031222 86.7568304319 91.8314218109 87.2588049042 92.0811582999 C 87.7607793765 92.3308947889 88.3311633491 92.471754218 88.9174265033 92.4800875328 C 89.5036896576 92.4884208476 90.1051880763 92.3631510892 90.661695303 92.1057492945 C 91.2182025297 91.8483474997 91.7286241934 91.4580896419 92.1368435636 90.9636124839 C 92.5450629338 90.4691353259 92.8497206323 89.8702514008 93.0108659413 89.2193502105 C 93.1720112503 88.5684490201 93.1882777092 87.8659688776 93.0457032146 87.1793792686 C 92.90312872 86.4927896595 92.6006232721 85.8231220954 92.1555502175 85.2403049559 C 91.7104771628 84.6574878164 91.1222755492 84.162986802 90.4389553202 83.8148751684 C 89.7556350912 83.4667635349 88.9773305392 83.2666769706 88.175581703 83.2476453106 C 87.3738328668 83.2286136506 86.5495064369 83.3921182824 85.7849958839 83.7369314242 C 85.0204853308 84.081744566 84.3172780454 84.6088707501 83.7525001787 85.2798729486 C 83.1877223121 85.9508751471 82.7632307033 86.7660274672 82.5343498404 87.6541947374 C 82.3054689775 88.5423620076 82.2740735347 89.5029625211 82.460138613 90.4438971618 C 82.6462036912 91.3848318024 83.0512335615 92.3047039207 83.6523901761 93.1076433713 C 84.2535467907 93.9105828219 85.0516164734 94.5945922077 85.9816901394 95.0796170922 C 86.9117638053 95.5646419766 87.9736790757 95.8484434099 89.0700176474 95.8849135307 C 90.1663562191 95.9213836515 91.2959519718 95.7084850172 92.3460958227 95.2468240591 C 93.3962396737 94.7851631011 94.3649103349 94.0733465096 95.1461185554 93.1629419899 C 95.9273267759 92.2525374702 96.5185364463 91.1431459359 96.843151621 89.9313416332 C 97.1677667957 88.7195373304 97.2232158276 87.4060914745 96.980978674 86.1167118906 C 96.7387415205 84.8273323067 96.1967425394 83.5639096653 95.3849699708 82.4578670679 C 94.5731974021 81.3518244704 93.4905497488 80.405883604 92.2247635578 79.7303835581 C 90.9589773667 79.0548835121 89.5102455765 78.6528887093 88.0112110151 78.5887313549 C 86.5121764537 78.5245740004 84.9644075439 78.8010559768 83.5220692452 79.4188154445 C 82.0797309464 80.0365749123 80.7455697187 80.9975438807 79.6652230931 82.2325710832 C 78.5848764675 83.4675982857 77.7618079935 84.977262593 77.3020387509 86.6304726207 C 76.8422695083 88.2836826485 76.7493268917 90.0794170583 77.0638558523 91.8461112117 C 77.378384813 93.6128053652 78.1032489147 95.3479003382 79.1991432326 96.8712526177 C 80.2950375504 98.3946048971 81.7635040889 99.7025062572 83.4859785401 100.642898745 C 85.2084529913 101.583291233 87.184711367 102.151980994 89.2341700435 102.259250939 C 91.28362872 102.366520883 93.4041789813 102.008518334 95.384971088 101.182363043 C 97.3657631947 100.356207753 99.203065852 99.0592214683 100.696783912 97.3840889817 C 102.190501971 95.7089564952 103.335905725 93.6548409616 103.986278617 91.3996611909 C 104.63665151 89.1444814203 104.787155673 86.6895884105 104.379965286 84.2691092561 C 103.972774899 81.8486301017 103.003940024 79.4660274664 101.524874019 77.3682031812 C 100.045808014 75.270378896 98.0543535288 73.4623847823 95.710696098 72.1537408907 C 93.3670386671 70.845096999 90.6714300404 70.041542362 87.8696939905 69.8681383117 C 85.0679579407 69.6947342614 82.1629284829 70.1567777291 79.4429563757 71.2609536602 C 76.7229842684 72.3651295913 74.19313809 74.1151497352 72.1283034494 76.3868505824 C 70.0634688088 78.6585514296 68.4701038347 81.4531391562 67.5511957831 84.5291769688 C 66.6322877314 87.6052147814 66.3944711547 90.9609178569 66.9198855215 94.2768134517 C 67.4452998884 97.5927090464 68.7393927891 100.864112559 70.7350589074 103.752656269 C 72.7307250257 106.641199978 75.4309808445 109.140002382 78.6194619081 110.96040809 C 81.8079429717 112.780813797 85.4843796803 113.914970008 89.3141767246 114.188624045 C 93.143973769 114.462278082 97.1233239168 113.868148203 100.857924472 112.393336459 C 104.592525028 110.918524714 108.07549181 108.557888386 110.929235189 105.47767192 C 113.782978567 102.397455453 115.998681188 98.5959250176 117.295564857 94.4006609754 C 118.592448527 90.2053969331 118.961415642 85.618754074 118.285960611 81.0766194666 C 117.61050558 76.5344848592 115.8831165 72.0431949004 113.19117026 68.0664234729 C 110.49922402 64.0896520453 106.83850524 60.6367719979 102.50118627 58.1054070476 C 98.1638673006 55.5740420973 93.1502146314 53.9749363671 87.9155996941 53.550779561 C 82.6809847567 53.1266227549 77.2305200501 53.8874240008 72.1033423931 55.8559586575 C 66.9761647362 57.8244933142 62.1816229559 61.0078849384 58.2383273343 65.1836705035 C 54.2950317127 69.3594560685 51.2150195486 74.5301218219 49.3865887358 80.2512780625 C 47.5581579231 85.972434303 46.9937823074 92.2409787446 47.8584873564 98.4622469236 C 48.7231924055 104.683515103 51.0273349788 110.84893827 54.6574435182 116.323191954 C 58.2875520576 121.797445638 63.2495141633 126.567765079 69.1488906622 130.086498784 C 75.0482671611 133.60523249 81.8848334636 135.857681791 89.0389185678 136.50598007 C 96.1930036721 137.15427835 103.657745324 136.184669122 110.696039456 133.558981361 C 117.734333589 130.933293601 124.333486166 126.64166238 129.78127486 120.981607047 C 135.229063554 115.321551713 139.509056807 108.289514979 142.08437641 100.488251674 C 144.659696012 92.6869883686 145.513240554 84.1205791985 144.411554379 75.6002235182 C 143.309868204 67.0798678379 140.238674215 58.617150636 135.344899683 51.0825100647 C 130.451125151 43.5478694933 123.726551141 36.9586878003 115.703538024 32.0691475551 C 107.680524908 27.17960731 98.3591884727 24.0098154399 88.58268 23.0299554922"
     style="fill:none;fill-opacity:1;stroke:#00ff00;stroke-width:0.88582676999999999;stroke-miterlimit:4;stroke-dasharray:none;stroke-opacity:1" />
  <path
     id="path6007"
     title="0.15*exp(0.1*x)"
     d=" M 88.7838775503 87.9634500443 C 88.6945131969 87.9242258473 88.5941998402 87.9044213944 88.492201717 87.907827983 C 88.3902035938 87.9112345716 88.2866631336 87.9379958869 88.1920392682 87.9873573747 C 88.0974154027 88.0367188626 88.0119043984 88.1087973404 87.9450256734 88.1981491931 C 87.8781469485 88.2875010457 87.8301384002 88.3941476082 87.8075120649 88.5086494449 C 87.7848857297 88.6231512815 87.7878755534 88.7454208691 87.8183502376 88.8636121681 C 87.8488249218 88.981803467 87.9069654334 89.0957281089 87.9891737919 89.1933719827 C 88.0713821505 89.2910158565 88.1777437455 89.3721194864 88.2994304907 89.4269837367 C 88.4211172359 89.481847987 88.558092236 89.5101895853 88.6976438162 89.5068583815 C 88.8371953964 89.5035271777 88.979160603 89.468272792 89.1092244797 89.4019910734 C 89.2392883564 89.3357093547 89.3571839824 89.2382379713 89.4498203575 89.1168984359 C 89.5424567325 88.9955589004 89.6095087521 88.8503189344 89.6419467113 88.6940044661 C 89.6743846705 88.5376899977 89.6718874519 88.37041769 89.6317449028 88.2083655484 C 89.5916023537 88.0463134068 89.513564505 87.8897367144 89.4023960318 87.7551145379 C 89.2912275586 87.6204923614 89.1468082913 87.5081784852 88.9810864894 87.4315537864 C 88.8153646875 87.3549290875 88.6283871258 87.3143814903 88.4374730478 87.3171205976 C 88.2465589699 87.3198597049 88.0519279944 87.3662300935 87.8731709681 87.4551928698 C 87.6944139418 87.5441556462 87.53189383 87.675936314 87.4036110917 87.8406913853 C 87.2753283534 88.0054464566 87.1817272279 88.2032243132 87.1353250392 88.4165999586 C 87.0889228506 88.629975604 87.0901603244 88.8587936544 87.1429549094 89.0809620449 C 87.1957494943 89.3031304354 87.300446408 89.518303259 87.4507433758 89.7038793458 C 87.6010403437 89.8894554326 87.7971063336 90.0449524608 88.0227734313 90.1519132492 C 88.2484405289 90.2588740375 88.5036498098 90.316767396 88.7648068764 90.315506924 C 89.025963943 90.314246452 89.2927729003 90.2533579972 89.5384249765 90.1340074035 C 89.7840770527 90.0146568098 90.0080787407 89.8365309198 90.1856818648 89.6128587088 C 90.3632849888 89.3891864979 90.4938825735 89.1198960073 90.5601272424 88.828657165 C 90.6263719112 88.5374183227 90.6276588416 88.2244379148 90.5583423061 87.9198811995 C 90.4890257706 87.6153244841 90.3486290962 87.319660078 90.1454778814 87.063882637 C 89.9423266665 86.808105196 89.6761835263 86.592872212 89.368921679 86.4436388913 C 89.0616598318 86.2944055705 88.7133529542 86.2118992116 88.3561407827 86.2102226453 C 87.9989286111 86.208546079 87.6332096799 86.2883516766 87.2956666806 86.4483939446 C 86.9581236813 86.6084362126 86.6494275269 86.849149896 86.4035996193 87.1527634057 C 86.1577717118 87.4563769154 85.9756413001 87.8229965759 85.881243348 88.2204738913 C 85.7868453959 88.6179512068 85.7810098376 89.0460112223 85.8718513642 89.46346913 C 85.9626928909 89.8809270377 86.1508695707 90.2871480973 86.4253977105 90.6396311752 C 86.6999258503 90.9921142531 87.0611386933 91.2899631604 87.4794507535 91.4980769012 C 87.8977628138 91.7061906421 88.3730827909 91.8235734996 88.8616354195 91.8305179286 C 89.350188048 91.8374623576 89.8514367302 91.7330708923 90.3151927525 91.5185693966 C 90.7789487747 91.304067901 91.2043001612 90.9788530195 91.5444829697 90.5667887212 C 91.8846657782 90.1547244228 92.1385471936 89.6556544853 92.2728349511 89.1132368266 C 92.4071227086 88.570819168 92.420678091 87.9854190493 92.3018660122 87.4132610417 C 92.1830539333 86.8411030342 91.9309660601 86.2830467307 91.5600718479 85.7973657812 C 91.1891776357 85.3116848316 90.6990096243 84.8996006529 90.1295761002 84.609507625 C 89.560142576 84.319414597 88.9115554493 84.1526757934 88.2434314192 84.1368160768 C 87.575307389 84.1209563601 86.8883686974 84.25721022 86.2512765699 84.5445545048 C 85.6141844424 84.8318987896 85.0281783711 85.2711706096 84.5575301489 85.8303391084 C 84.0868819267 86.3895076072 83.7331389194 87.0688012072 83.542404867 87.8089405991 C 83.3516708146 88.549079991 83.3255079456 89.3495804188 83.4805621775 90.1336926194 C 83.6356164094 90.91780482 83.9731413012 91.6843649185 84.4741051468 92.3534811274 C 84.9750689923 93.0225973362 85.6401270612 93.5926051576 86.4151884495 93.9967925614 C 87.1902498378 94.4009799651 88.0751792298 94.6374811595 88.9887947062 94.6678729268 C 89.9024101826 94.6982646942 90.8437399765 94.5208491656 91.7188598523 94.1361317005 C 92.5939797281 93.7514142355 93.4012052791 93.1582337426 94.0522121295 92.3995633095 C 94.7032189799 91.6408928764 95.1958937053 90.7163999312 95.4664063508 89.7065630122 C 95.7369189964 88.6967260933 95.783126523 87.60218788 95.5812622283 86.5277048934 C 95.3793979337 85.4532219068 94.9277321162 84.4003697057 94.2512549756 83.4786675412 C 93.5747778351 82.5569653766 92.6725714574 81.7686813213 91.6177496315 81.2057646163 C 90.5629278056 80.6428479114 89.3556513138 80.3078522424 88.1064558459 80.2543877803 C 86.857260378 80.2009233183 85.5674529533 80.4313249652 84.365504371 80.9461245217 C 83.1635557887 81.4609240782 82.0517547656 82.2617315518 81.1514659109 83.2909208873 C 80.2511770563 84.3201102227 79.5652866613 85.5781638121 79.1821456258 86.9558388352 C 78.7990045902 88.3335138583 78.7215524097 89.8299591998 78.9836598769 91.3022043277 C 79.2457673442 92.7744494556 79.8498207623 94.2203619331 80.7630660271 95.489822166 C 81.676311292 96.7592823989 82.9000334074 97.8492001989 84.3354287834 98.6328606056 C 85.7708241594 99.4165210122 87.4177061392 99.8904291463 89.1255883696 99.9798207667 C 90.8334706 100.069212387 92.6005958178 99.7708769293 94.2512559067 99.0824141874 C 95.9019159956 98.3939514456 97.4330015433 97.3131295415 98.6777665929 95.9171858027 C 99.9225316426 94.5212420639 100.877034771 92.8094791192 101.419012181 90.9301626437 C 101.960989591 89.0508461682 102.086409727 87.0051019933 101.747084405 84.9880360313 C 101.407759083 82.9709700693 100.600396687 80.9854678732 99.3678416825 79.2372809689 C 98.1352866785 77.4890940646 96.475741274 75.9824323032 94.522693415 74.8918957268 C 92.569645556 73.8013591504 90.3233050337 73.1317302862 87.9885249921 72.987226911 C 85.6537449506 72.8427235358 83.2328870691 73.2277597589 80.9662436464 74.1479063681 C 78.6996002237 75.0680529774 76.591395075 76.5264030972 74.8706995412 78.4194871366 C 73.1500040074 80.3125711759 71.8221998623 82.6413942814 71.0564431526 85.2047591253 C 70.2906864429 87.7681239691 70.0925059622 90.5645431987 70.5303512679 93.3277895276 C 70.9681965737 96.0910358566 72.0466073242 98.8172054506 73.7096624228 101.224325209 C 75.3727175214 103.631444967 77.6229307038 105.713780303 80.2799982567 107.230785059 C 82.9370658097 108.747789815 86.0007630669 109.692919991 89.1922606038 109.920965022 C 92.3837581408 110.149010053 95.699883264 109.653901821 98.8120503937 108.424892033 C 101.924217523 107.195882246 104.826689842 105.228685306 107.204809324 102.661838251 C 109.582928806 100.094991196 111.429347657 96.927049166 112.510084048 93.4309957974 C 113.590820439 89.9349424288 113.898293035 86.1127400463 113.335413843 82.3276278734 C 112.77253465 78.5425157006 111.33304375 74.7997740682 109.089755217 71.4857978786 C 106.846466683 68.171821689 103.7958677 65.2944216495 100.181435225 63.1849508576 C 96.5670027505 61.0754800657 92.3889588595 59.7428919571 88.0267797451 59.3894279521 C 83.6646006306 59.035963947 79.1225467084 59.6699649853 74.849898661 61.3104105325 C 70.5772506135 62.9508560797 66.58179913 65.6036824333 63.2957194453 69.0835037375 C 60.0096397606 72.5633250417 57.4429629571 76.8722131695 55.9192706132 81.63984337 C 54.3955782692 86.4074735704 53.9252652561 91.6312606051 54.645852797 96.8156507543 C 55.3664403379 102.000040903 57.286559149 107.137893543 60.3116495985 111.699771613 C 63.336740048 116.261649683 67.4717084694 120.236915884 72.3878555518 123.169193972 C 77.3040026342 126.10147206 83.0011412196 127.978513144 88.9628788065 128.51876171 C 94.9246163934 129.059010276 101.145234437 128.251002586 107.010479547 126.062929452 C 112.875724657 123.874856319 118.375018472 120.298496968 122.914842383 115.58178419 C 127.454666295 110.865071412 131.021327339 105.0050408 133.167427008 98.5039880461 C 135.313526677 92.0029352918 136.024813795 84.8642609833 135.106741983 77.7639645831 C 134.18867017 70.6636681829 131.629341846 63.6114038479 127.551196403 57.3325367051 C 123.47305096 51.0536695624 117.869239284 45.5626848182 111.18339502 41.4880679472 C 104.497550756 37.4134510763 96.7297703939 34.7719578511 88.58268 33.9554078948"
     style="fill:none;fill-opacity:1;stroke:#008000;stroke-width:0.88582676999999999;stroke-miterlimit:4;stroke-dasharray:none;stroke-opacity:1" />
  <path
     style="fill:#00ff00;fill-rule:evenodd;stroke:#00ff00;stroke-width:0.66259986px;stroke-linecap:butt;stroke-linejoin:miter;stroke-opacity:1"
     d="M 63.225002,131.65687 L 57.355514,119.9179 L 69.094488,125.78739"
     id="path8349"
     sodipodi:nodetypes="ccc" />
  <path
     style="fill:#00ff00;fill-rule:evenodd;stroke:#00ff00;stroke-width:0.66259986px;stroke-linecap:butt;stroke-linejoin:miter;stroke-opacity:1"
     d="M 97.168131,20.267375 L 107.62714,28.196008 L 94.502751,28.128512"
     id="path8352"
     sodipodi:nodetypes="ccc"
     inkscape:transform-center-x="7.0059221"
     inkscape:transform-center-y="-4.1147596" />
  <path
     style="fill:#008000;fill-rule:evenodd;stroke:#008000;stroke-width:0.66259986px;stroke-linecap:butt;stroke-linejoin:miter;stroke-opacity:1"
     d="M 116.14161,125.98169 L 103.07287,127.19098 L 112.80229,118.3823"
     id="path8354"
     sodipodi:nodetypes="ccc"
     inkscape:transform-center-x="-6.9633199"
     inkscape:transform-center-y="-4.5928201" />
</svg>
